HIERARCHY
ROOT joint_Root
{
	OFFSET 0.0 0.0 0.0
	CHANNELS 6 Xposition Yposition Zposition Zrotation Xrotation Yrotation 
	JOINT Hips
	{
		OFFSET 4.5925 91.4895 -427.239
		CHANNELS 6 Xposition Yposition Zposition Zrotation Xrotation Yrotation 
		JOINT Spine
		{
			OFFSET 15.7357 0.0 0.0
			CHANNELS 6 Xposition Yposition Zposition Zrotation Xrotation Yrotation 
			JOINT Chest
			{
				OFFSET 8.98455 -0.406207 0.0
				CHANNELS 6 Xposition Yposition Zposition Zrotation Xrotation Yrotation 
				JOINT Neck
				{
					OFFSET 16.3773 0.0 0.0
					CHANNELS 6 Xposition Yposition Zposition Zrotation Xrotation Yrotation 
					JOINT Head
					{
						OFFSET 6.45672 0.0 0.0
						CHANNELS 6 Xposition Yposition Zposition Zrotation Xrotation Yrotation 
						End Site
						{
							OFFSET 0.0 0.0 0.0
						}
					}
				}
				JOINT Shoulder_L
				{
					OFFSET 12.9942 -0.242716 4.98039
					CHANNELS 6 Xposition Yposition Zposition Zrotation Xrotation Yrotation 
					JOINT UpperArm_L
					{
						OFFSET 5.34809 0.0 0.0
						CHANNELS 6 Xposition Yposition Zposition Zrotation Xrotation Yrotation 
						JOINT LowerArm_L
						{
							OFFSET 24.3286 1.87007e-05 0.0
							CHANNELS 6 Xposition Yposition Zposition Zrotation Xrotation Yrotation 
							JOINT Hand_L
							{
								OFFSET 22.2916 0.0 0.0
								CHANNELS 6 Xposition Yposition Zposition Zrotation Xrotation Yrotation 
								End Site
								{
									OFFSET 0.0 0.0 0.0
								}
							}
						}
					}
				}
				JOINT Shoulder_R
				{
					OFFSET 12.9945 -0.242716 -4.98039
					CHANNELS 6 Xposition Yposition Zposition Zrotation Xrotation Yrotation 
					JOINT UpperArm_R
					{
						OFFSET -5.34813 0.0 0.0
						CHANNELS 6 Xposition Yposition Zposition Zrotation Xrotation Yrotation 
						JOINT LowerArm_R
						{
							OFFSET -24.3289 0.000322201 0.0
							CHANNELS 6 Xposition Yposition Zposition Zrotation Xrotation Yrotation 
							JOINT Hand_R
							{
								OFFSET -22.2915 -0.000108084 0.0
								CHANNELS 6 Xposition Yposition Zposition Zrotation Xrotation Yrotation 
								End Site
								{
									OFFSET 0.0 0.0 0.0
								}
							}
						}
					}
				}
			}
		}
		JOINT UpperLeg_L
		{
			OFFSET -2.19248 -6.46944 0.0
			CHANNELS 6 Xposition Yposition Zposition Zrotation Xrotation Yrotation 
			JOINT LowerLeg_L
			{
				OFFSET 39.0811 0.0 -1.23785e-05
				CHANNELS 6 Xposition Yposition Zposition Zrotation Xrotation Yrotation 
				JOINT Foot_L
				{
					OFFSET 40.9854 0.0 -1.26872e-05
					CHANNELS 6 Xposition Yposition Zposition Zrotation Xrotation Yrotation 
					JOINT Toes_L
					{
						OFFSET 11.7543 0.0 0.0
						CHANNELS 6 Xposition Yposition Zposition Zrotation Xrotation Yrotation 
						End Site
						{
							OFFSET 0.0 0.0 0.0
						}
					}
				}
			}
		}
		JOINT UpperLeg_R
		{
			OFFSET -2.19251 6.46944 0.0
			CHANNELS 6 Xposition Yposition Zposition Zrotation Xrotation Yrotation 
			JOINT LowerLeg_R
			{
				OFFSET -39.0811 -0.00228153 -0.0401928
				CHANNELS 6 Xposition Yposition Zposition Zrotation Xrotation Yrotation 
				JOINT Foot_R
				{
					OFFSET -40.9854 0.0 0.0
					CHANNELS 6 Xposition Yposition Zposition Zrotation Xrotation Yrotation 
					JOINT Toes_R
					{
						OFFSET -11.7543 0.0 0.0
						CHANNELS 6 Xposition Yposition Zposition Zrotation Xrotation Yrotation 
						End Site
						{
							OFFSET 0.0 0.0 0.0
						}
					}
				}
			}
		}
	}
}
MOTION
Frames:	5
Frame Time:	0.0333333
0.000000 0.000000 0.000000 0.000000 0.000000 -0.000000 2.269090 90.613400 -0.943830 89.927800 -4.988150 13.759500 15.735700 0.000005 -0.000001 93.053100 83.196500 -95.134500 8.984550 -0.406207 -0.000000 5.839190 0.757806 -4.196700 16.377300 -0.000001 -0.000001 25.804900 1.509330 3.126230 6.456720 -0.000001 -0.000000 14.700600 1.960200 -12.939100 12.994200 -0.242716 4.980390 -90.935100 3.465740 -74.891300 5.348090 -0.000007 -0.000001 -63.605400 34.768000 -12.489400 24.328600 0.000019 0.000005 7.502670 21.764800 -19.553900 22.291600 -0.000001 0.000005 7.405660 5.240560 1.680930 12.994500 -0.242716 -4.980390 91.536300 -5.190340 -73.486700 -5.348130 -0.000001 -0.000004 -62.590000 -40.413800 -87.487800 -24.328900 0.000322 -0.000009 4.158030 1.758770 -67.119300 -22.291500 -0.000108 -0.000004 18.183000 5.411810 -3.325320 -2.192480 -6.469440 -0.000000 -175.704000 -14.702700 2.925110 39.081100 -0.000007 -0.000012 -0.108628 0.175431 31.766300 40.985400 -0.000006 -0.000013 2.187360 4.723290 -70.867500 11.754300 -0.000000 0.000003 -0.000207 -0.001909 -16.649500 -2.192510 6.469440 -0.000001 170.281000 20.028800 -176.883000 -39.081100 -0.002282 -0.040193 -0.151220 0.252617 31.453100 -40.985400 0.000008 0.000006 1.722530 15.288300 -69.568300 -11.754300 -0.000006 -0.000006 -0.003288 -0.043815 -18.355100
0.000000 0.000000 0.000000 0.000000 0.000000 -0.000000 2.228470 90.604400 -0.864613 89.876000 -4.919780 13.783000 15.735700 0.000005 -0.000001 93.241600 83.140000 -95.359900 8.984550 -0.406207 -0.000000 5.950970 0.807243 -4.273750 16.377300 -0.000001 -0.000001 26.071800 1.439890 3.186660 6.456720 -0.000001 -0.000000 14.752000 1.791250 -12.786400 12.994200 -0.242716 4.980390 -90.980200 3.595680 -74.740500 5.348090 -0.000007 -0.000001 -63.375100 34.609100 -12.466700 24.328600 0.000019 0.000005 7.499350 21.917400 -19.426100 22.291600 -0.000001 0.000005 7.325810 5.236470 1.787730 12.994500 -0.242716 -4.980390 91.512000 -5.075500 -73.387300 -5.348130 -0.000001 -0.000004 -62.834100 -40.271100 -87.685300 -24.328900 0.000322 -0.000009 4.053270 1.707060 -67.206100 -22.291500 -0.000108 -0.000004 18.307400 5.412010 -3.331940 -2.192480 -6.469440 -0.000000 -175.591000 -14.677700 2.981830 39.081100 -0.000007 -0.000012 -0.115121 0.185561 31.815400 40.985400 -0.000006 -0.000013 2.167600 4.798020 -70.935300 11.754300 -0.000000 0.000003 -0.000196 -0.001818 -16.646200 -2.192510 6.469440 -0.000001 170.298000 20.093200 -176.761000 -39.081100 -0.002282 -0.040193 -0.160758 0.268346 31.440300 -40.985400 0.000008 0.000006 1.730090 15.248900 -69.634400 -11.754300 -0.000006 -0.000006 -0.003436 -0.045445 -18.421400
0.000000 0.000000 0.000000 0.000000 0.000000 -0.000000 2.188670 90.592200 -0.749392 89.858100 -4.944100 13.872700 15.735700 0.000005 -0.000001 93.655900 83.057500 -95.832100 8.984550 -0.406207 -0.000000 6.112370 0.914238 -4.396440 16.377300 -0.000001 -0.000001 26.389200 1.341430 3.180260 6.456720 -0.000001 -0.000000 14.779200 1.603310 -12.544200 12.994200 -0.242716 4.980390 -91.023300 3.722620 -74.618300 5.348090 -0.000007 -0.000001 -63.176000 34.450300 -12.395300 24.328600 0.000019 0.000005 7.452880 22.018600 -19.235200 22.291600 -0.000001 0.000005 7.414320 5.235830 1.804430 12.994500 -0.242716 -4.980390 91.477600 -4.933430 -73.303100 -5.348130 -0.000001 -0.000004 -62.867400 -40.145400 -87.645100 -24.328900 0.000322 -0.000009 4.091440 1.714800 -67.305800 -22.291500 -0.000108 -0.000004 18.250300 5.410560 -3.283700 -2.192480 -6.469440 -0.000000 -175.512000 -14.654800 3.167380 39.081100 -0.000007 -0.000012 -0.113998 0.183654 31.829000 40.985400 -0.000006 -0.000013 2.136690 4.802710 -71.031700 11.754300 -0.000000 0.000003 -0.000193 -0.001797 -16.645400 -2.192510 6.469440 -0.000001 170.265000 20.057700 -176.576000 -39.081100 -0.002282 -0.040193 -0.172759 0.287917 31.445500 -40.985400 0.000008 0.000006 1.737590 15.243300 -69.727700 -11.754300 -0.000006 -0.000006 -0.003692 -0.048197 -18.533500
0.000000 0.000000 0.000000 0.000000 0.000000 -0.000000 2.153530 90.574800 -0.636526 89.847800 -4.933050 13.957300 15.735700 0.000005 -0.000001 93.937600 82.968300 -96.163500 8.984550 -0.406207 -0.000000 6.288140 0.991577 -4.501430 16.377300 -0.000001 -0.000001 26.654000 1.242520 3.166830 6.456720 -0.000001 -0.000000 14.869600 1.337280 -12.430500 12.994200 -0.242716 4.980390 -91.080100 3.888420 -74.462500 5.348090 -0.000007 -0.000001 -62.955800 34.373200 -12.369600 24.328600 0.000019 0.000005 7.383680 22.082500 -19.019100 22.291600 -0.000001 0.000005 7.389940 5.233620 1.861760 12.994500 -0.242716 -4.980390 91.453200 -4.813700 -73.179400 -5.348130 -0.000001 -0.000004 -62.763000 -39.994900 -87.559000 -24.328900 0.000322 -0.000009 4.073810 1.709070 -67.285700 -22.291500 -0.000108 -0.000004 18.202600 5.411140 -3.303000 -2.192480 -6.469440 -0.000000 -175.456000 -14.579400 3.321460 39.081100 -0.000007 -0.000012 -0.117006 0.188204 31.869300 40.985400 -0.000006 -0.000013 2.082600 4.737090 -71.130200 11.754300 -0.000000 0.000003 -0.000206 -0.001901 -16.649200 -2.192510 6.469440 -0.000001 170.230000 20.013600 -176.407000 -39.081100 -0.002282 -0.040193 -0.182005 0.302625 31.480300 -40.985400 0.000008 0.000006 1.746230 15.225100 -69.841300 -11.754300 -0.000006 -0.000006 -0.003635 -0.047584 -18.508500
0.000000 0.000000 0.000000 0.000000 0.000000 -0.000000 2.114870 90.558200 -0.531294 89.819800 -4.950430 14.034600 15.735700 0.000005 -0.000001 94.129100 82.877400 -96.401500 8.984550 -0.406207 -0.000000 6.467880 1.048270 -4.599130 16.377300 -0.000001 -0.000001 26.867700 1.171270 3.155690 6.456720 -0.000001 -0.000000 15.010000 1.102350 -12.371500 12.994200 -0.242716 4.980390 -91.121800 4.005670 -74.341400 5.348090 -0.000007 -0.000001 -62.897700 34.190200 -12.207700 24.328600 0.000019 0.000005 7.352690 22.171700 -18.876900 22.291600 -0.000001 0.000005 7.349580 5.233720 1.859230 12.994500 -0.242716 -4.980390 91.423200 -4.705330 -73.150400 -5.348130 -0.000001 -0.000004 -62.468500 -39.949200 -87.304400 -24.328900 0.000322 -0.000009 4.030270 1.694060 -67.245700 -22.291500 -0.000108 -0.000004 18.215600 5.409630 -3.253070 -2.192480 -6.469440 -0.000000 -175.353000 -14.597000 3.471420 39.081100 -0.000007 -0.000012 -0.118969 0.191009 31.916700 40.985400 -0.000006 -0.000013 2.057600 4.764780 -71.233300 11.754300 -0.000000 0.000003 -0.000204 -0.001879 -16.648400 -2.192510 6.469440 -0.000001 170.241000 19.960400 -176.256000 -39.081100 -0.002282 -0.040193 -0.186776 0.310038 31.511400 -40.985400 0.000008 0.000006 1.756200 15.163700 -69.944700 -11.754300 -0.000006 -0.000006 -0.003670 -0.047958 -18.523800
